<?xml version="1.0" encoding="UTF-8" standalone="no"?>
<!DOCTYPE svg PUBLIC "-//W3C//DTD SVG 1.1//EN" "http://www.w3.org/Graphics/SVG/1.1/DTD/svg11.dtd">
<svg width="100%" height="100%" viewBox="0 0 700 240" version="1.1" xmlns="http://www.w3.org/2000/svg" xmlns:xlink="http://www.w3.org/1999/xlink" xml:space="preserve" xmlns:serif="http://www.serif.com/" style="fill-rule:evenodd;clip-rule:evenodd;stroke-linejoin:round;stroke-miterlimit:2;">
    <g transform="matrix(1,0,0,1,0,-280)">
        <g id="Artboard2" transform="matrix(1.73068,0,0,1.9382,11.9371,-266.023)">
            <rect x="-6.897" y="281.717" width="404.466" height="123.826" style="fill:none;"/>
            <g transform="matrix(0.617,0,0,0.550939,-30.7171,286.773)">
                <g transform="matrix(1,0,0,1,-13.4135,0)">
                    <g transform="matrix(1,0,0,1,146.346,157.008)">
                        <path d="M-9.357,-23.655L-77.582,-122.485L-89.644,-122.485L-89.644,25L-75.206,15L-75.206,-94.045L-6.984,5L5,5L5,-122.485L-9.357,-112.485L-9.357,-23.655Z" style="fill:white;"/>
                    </g>
                    <g transform="matrix(1,0,0,1,241.883,102.944)">
                        <path d="M-4.47,-0.002L-4.47,-14.359L-53.904,-14.359C-53.904,-14.359 -53.904,-54.065 -53.904,-54.065C-53.904,-54.065 3.23,-54.065 3.23,-54.065L-6.77,-68.422L-68.261,-68.422L-68.261,59.063L-6.77,59.063L3.23,44.706L-53.904,44.706C-53.904,44.706 -53.904,-0.002 -53.904,-0.002C-53.904,-0.002 -4.47,-0.002 -4.47,-0.002Z" style="fill:white;"/>
                    </g>
                    <g transform="matrix(-1,0,0,1,565.833,-28.469)">
                        <rect x="250.473" y="62.992" width="14.357" height="127.485" style="fill:white;"/>
                    </g>
                    <g transform="matrix(1,0,0,1,460.12,158.702)">
                        <path d="M9.357,-114.179L-5,-124.179L-5,-39.538C-5,-30.095 -7.703,-22.655 -13.413,-17.336C-19.192,-11.954 -26.659,-9.357 -35.745,-9.357C-44.883,-9.357 -52.378,-11.951 -58.158,-17.335L-58.158,-17.336C-63.87,-22.655 -66.572,-30.096 -66.572,-39.538L-66.572,-124.179L-80.929,-114.179L-80.929,-39.538C-80.929,-25.157 -76.563,-14.203 -68.219,-6.527C-59.952,1.08 -49.155,5 -35.745,5C-22.457,5 -11.704,1.102 -3.406,-6.475C4.97,-14.121 9.357,-25.091 9.357,-39.538C9.357,-39.538 9.357,-114.179 9.357,-114.179Z" style="fill:white;"/>
                    </g>
                    <g transform="matrix(1,0,0,1,580.188,157.008)">
                        <path d="M-9.357,-23.654L-77.582,-122.485L-89.645,-122.485L-89.645,12L-75.206,12L-75.206,-94.045L-6.984,5L5,5L5,-122.485L-9.357,-112.485L-9.357,-23.654Z" style="fill:white;"/>
                    </g>
                    <g transform="matrix(1,0,0,1,695.656,107.06)">
                        <path d="M5,-17.59C5,-34.784 0.546,-48.391 -8.052,-58.51L-8.052,-58.511C-16.898,-68.919 -28.976,-74.232 -44.38,-74.232C-59.856,-74.232 -71.923,-68.907 -80.684,-58.491L-80.684,-58.491C-89.19,-48.376 -93.599,-34.776 -93.599,-17.59L-93.599,0C-93.599,17.253 -89.156,30.872 -80.588,40.96C-71.774,51.339 -59.683,56.642 -44.219,56.642C-28.808,56.642 -16.756,51.338 -7.965,40.954L-7.965,40.953C0.571,30.867 5,17.25 5,0C5,0 5,-17.59 5,-17.59ZM-9.357,0C-9.357,13.229 -12.319,23.735 -18.566,31.423C-24.533,38.763 -33.127,42.285 -44.219,42.285C-55.315,42.285 -63.922,38.748 -69.913,31.38L-69.913,31.38C-76.184,23.669 -79.16,13.178 -79.16,0C-79.16,0 -79.16,-17.752 -79.16,-17.752C-79.16,-30.828 -76.194,-41.267 -69.947,-48.979L-69.947,-48.979C-63.985,-56.339 -55.42,-59.875 -44.38,-59.875C-33.279,-59.875 -24.657,-56.334 -18.64,-48.964C-12.348,-41.256 -9.357,-30.821 -9.357,-17.752L-9.357,0Z" style="fill:white;"/>
                    </g>
                </g>
                <g transform="matrix(0.989952,0.141406,0.141406,-0.989952,366.888,168.674)">
                    <path d="M-1.234,-2.837C162.731,20.584 322.971,2.57 322.971,2.57C322.971,2.57 174.158,35.968 -3.159,10.639C-180.476,-14.689 -313.983,-88.448 -313.983,-88.448C-313.983,-88.448 -165.199,-26.258 -1.234,-2.837Z" style="fill:rgb(123,125,229);"/>
                </g>
                <g transform="matrix(-0.392086,0.00935889,0.00611488,0.25618,313.102,10.1654)">
                    <path d="M0.296,55.653C164.261,79.074 322.971,2.57 322.971,2.57C322.971,2.57 176.643,133.453 -0.674,108.125C-177.991,82.797 -287.884,-50.367 -287.884,-50.367C-287.884,-50.367 -163.669,32.232 0.296,55.653Z" style="fill:white;"/>
                </g>
            </g>
        </g>
    </g>
</svg>
