<?xml version="1.0" encoding="UTF-8" standalone="no"?>
<!DOCTYPE svg PUBLIC "-//W3C//DTD SVG 1.1//EN" "http://www.w3.org/Graphics/SVG/1.1/DTD/svg11.dtd">
<svg width="100%" height="100%" viewBox="0 0 1258 1258" version="1.1" xmlns="http://www.w3.org/2000/svg" xmlns:xlink="http://www.w3.org/1999/xlink" xml:space="preserve" xmlns:serif="http://www.serif.com/" style="fill-rule:evenodd;clip-rule:evenodd;stroke-linejoin:round;stroke-miterlimit:2;">
    <g id="Planeta-Camadas" serif:id="Planeta/Camadas">
        <g transform="matrix(-0.272568,-0.962123,-0.962136,0.272564,304.258,102.059)">
            <path d="M-595.082,-787.084C-936.67,-787.083 -1213.58,-510.172 -1213.58,-168.584C-1213.58,173.004 -936.67,449.916 -595.082,449.917C-253.494,449.917 23.419,173.004 23.419,-168.584C23.418,-510.172 -253.494,-787.085 -595.082,-787.084" style="fill:rgb(17,120,185);fill-rule:nonzero;"/>
        </g>
        <g transform="matrix(1,0,0,0.999986,-811.341,-271.337)">
            <clipPath id="_clip1">
                <path d="M1271.42,304.918C942.763,398.025 751.812,739.93 844.918,1068.58C938.025,1397.24 1279.93,1588.19 1608.58,1495.08C1937.24,1401.98 2128.19,1060.07 2035.08,731.417C1957.94,459.11 1710.01,281.336 1440.32,281.341C1384.51,281.342 1327.76,288.955 1271.42,304.918Z" clip-rule="nonzero"/>
            </clipPath>
            <g clip-path="url(#_clip1)">
                <g transform="matrix(-0.392674,0.919678,0.919678,0.392674,1970.65,304.918)">
                    <path d="M568.176,-963.266C599.733,-547.068 482.487,-94.099 336.031,309.269L568.176,410.967C790.728,13.078 840.706,-910.68 811.157,-924.288L568.176,-963.266Z" style="fill:rgb(19,148,211);fill-rule:nonzero;"/>
                </g>
                <g transform="matrix(-0.280981,0.959713,0.959713,0.280981,1248.6,514.308)">
                    <path d="M378.906,-393.877C378.906,-393.877 458.329,719.284 312.686,956.936C167.043,1194.59 378.906,976.323 378.906,976.323C378.906,976.323 583.876,614.333 431.691,-378.423C279.505,-1371.18 378.906,-393.877 378.906,-393.877" style="fill:rgb(19,148,211);fill-rule:nonzero;"/>
                </g>
                <g transform="matrix(-0.461321,0.887233,0.887233,0.461321,1846.58,840.818)">
                    <path d="M583.284,-987.765C583.284,-987.765 801.024,-184.765 433.644,302.728C433.644,302.728 583.55,346.794 583.284,346.721C583.284,346.721 891.271,-206.594 669.273,-958.834C604.352,-1011.75 583.284,-987.765 583.284,-987.765" style="fill:rgb(19,148,211);fill-rule:nonzero;"/>
                </g>
                <g transform="matrix(-0.298023,0.954559,0.954559,0.298023,1582.85,441.365)">
                    <path d="M650.316,-667.239C650.316,-667.239 780.552,271.219 591.134,669.884C397.343,1005.38 650.316,688.361 650.316,688.361C650.316,688.361 931.795,108.918 685.635,-656.212C511.699,-1266.8 650.316,-667.239 650.316,-667.239" style="fill:rgb(19,148,211);fill-rule:nonzero;"/>
                </g>
                <g opacity="0.3">
                    <g transform="matrix(1,0,0,1,1957.01,1657.14)">
                        <path d="M0,-1278.14C-27.756,-1215.58 226.169,-414.956 -488.239,-232.736C-1400.7,0 63.917,-26.523 85.366,-28.506C106.815,-30.489 424.32,-584.06 426.311,-590.771C428.301,-597.482 170.865,-1227.69 170.865,-1227.69L0,-1278.14Z" style="fill-rule:nonzero;"/>
                    </g>
                </g>
                <g opacity="0.2">
                    <g transform="matrix(1,0,0,1,1844.49,1653.13)">
                        <path d="M0,-1414.31C-103.271,-1447.78 323.477,-802.491 -520.351,-384.511C-1364.18,33.469 25.161,-161.313 46.662,-162.631C68.162,-163.95 402.642,-707.432 404.839,-714.079C407.036,-720.725 169.223,-1358.6 169.223,-1358.6C169.223,-1358.6 103.271,-1380.84 0,-1414.31" style="fill-rule:nonzero;"/>
                    </g>
                </g>
            </g>
        </g>
        <g transform="matrix(1,0,0,0.999986,-811.341,-271.337)">
            <g opacity="0.08">
                <g transform="matrix(0.858417,-0.512952,-0.512952,-0.858417,1398.92,918.161)">
                    <path d="M-94.088,69.741C-480.286,76.356 -407.031,358.181 -291.151,471.265C-237.898,523.231 -161.156,561.594 -94.088,578.913C-21.775,597.587 76.211,600.93 156.354,571.452C378.98,489.564 569.163,58.38 -94.088,69.741" style="fill:white;fill-rule:nonzero;"/>
                </g>
            </g>
        </g>
        <g transform="matrix(1,0,0,0.999986,-811.341,-271.337)">
            <g opacity="0.1">
                <g transform="matrix(0.768852,-0.639427,-0.639427,-0.768852,1390.98,793.946)">
                    <path d="M-83.7,57.882C-377.852,72.787 -322.057,284.792 -233.795,367.647C-193.235,405.722 -134.783,432.872 -83.7,444.299C-28.623,456.62 46.01,456.649 107.052,432.227C276.618,364.383 421.473,32.283 -83.7,57.882" style="fill:white;fill-rule:nonzero;"/>
                </g>
            </g>
        </g>
    </g>
</svg>
